<svg xmlns="http://www.w3.org/2000/svg" viewBox="0 0 100 100" fill="none">
  <!-- Mortarboard (Cap) -->
  <path d="M50 10 L85 28 L50 46 L15 28 Z" fill="#1e3a8a" stroke="#1e3a8a" stroke-width="2" stroke-linejoin="round"/>
  
  <!-- Tassel -->
  <circle cx="50" cy="28" r="3" fill="#f59e0b"/>
  <path d="M50 28 Q75 28 80 50" stroke="#f59e0b" stroke-width="2" fill="none" stroke-linecap="round"/>
  <circle cx="80" cy="50" r="3" fill="#f59e0b"/>

  <!-- Book Pages (Gold) -->
  <path d="M50 55 Q25 55 25 70 V90 Q25 75 50 75 V55 Z" fill="#f59e0b" />
  <path d="M50 55 Q75 55 75 70 V90 Q75 75 50 75 V55 Z" fill="#f59e0b" />

  <!-- Book Cover / Outer Structure (Navy) -->
  <path d="M20 60 V85 Q20 95 50 95" stroke="#1e3a8a" stroke-width="6" fill="none" stroke-linecap="round"/>
  <path d="M80 60 V85 Q80 95 50 95" stroke="#1e3a8a" stroke-width="6" fill="none" stroke-linecap="round"/>
  
  <!-- Spine Line -->
  <line x1="50" y1="55" x2="50" y2="95" stroke="#1e3a8a" stroke-width="2" stroke-linecap="round"/>
</svg>
